<svg xmlns="http://www.w3.org/2000/svg" viewBox="0 0 63 63">
  <rect width="63" height="63" fill="#000"/>
  <rect x="5" y="5" width="4" height="4" fill="rgb(34,106,221)"/><rect x="5" y="9" width="4" height="3" fill="rgb(35,103,226)"/><rect x="12" y="5" width="4" height="4" fill="rgb(26,121,191)"/><rect x="16" y="5" width="3" height="4" fill="rgb(27,118,196)"/><rect x="19" y="5" width="4" height="4" fill="rgb(29,116,201)"/><rect x="19" y="9" width="4" height="3" fill="rgb(30,113,206)"/><rect x="26" y="5" width="4" height="4" fill="rgb(173,155,50)"/><rect x="30" y="5" width="3" height="4" fill="rgb(161,154,56)"/><rect x="33" y="5" width="4" height="4" fill="rgb(149,154,63)"/><rect x="33" y="9" width="4" height="3" fill="rgb(137,153,69)"/><rect x="40" y="5" width="4" height="4" fill="rgb(125,153,76)"/><rect x="44" y="5" width="3" height="4" fill="rgb(113,152,82)"/><rect x="47" y="5" width="4" height="4" fill="rgb(101,152,89)"/><rect x="47" y="9" width="4" height="3" fill="rgb(89,151,95)"/><rect x="51" y="5" width="3" height="4" fill="rgb(113,152,82)"/><rect x="54" y="5" width="4" height="4" fill="rgb(125,153,76)"/><rect x="5" y="12" width="4" height="4" fill="rgb(36,101,232)"/><rect x="5" y="16" width="4" height="3" fill="rgb(38,98,234)"/><rect x="9" y="12" width="3" height="4" fill="rgb(35,103,226)"/><rect x="12" y="12" width="4" height="4" fill="rgb(34,106,221)"/><rect x="16" y="12" width="3" height="4" fill="rgb(32,108,216)"/><rect x="19" y="12" width="4" height="4" fill="rgb(31,111,211)"/><rect x="23" y="12" width="3" height="4" fill="rgb(30,113,206)"/><rect x="26" y="12" width="4" height="4" fill="rgb(29,116,201)"/><rect x="26" y="16" width="4" height="3" fill="rgb(27,118,196)"/><rect x="33" y="12" width="4" height="4" fill="rgb(125,153,76)"/><rect x="37" y="12" width="3" height="4" fill="rgb(113,152,82)"/><rect x="40" y="12" width="4" height="4" fill="rgb(101,152,89)"/><rect x="44" y="12" width="3" height="4" fill="rgb(89,151,95)"/><rect x="47" y="12" width="4" height="4" fill="rgb(77,151,102)"/><rect x="47" y="16" width="4" height="3" fill="rgb(65,150,108)"/><rect x="51" y="12" width="3" height="4" fill="rgb(89,151,95)"/><rect x="54" y="12" width="4" height="4" fill="rgb(101,152,89)"/><rect x="5" y="19" width="4" height="4" fill="rgb(40,94,229)"/><rect x="5" y="23" width="4" height="3" fill="rgb(42,91,225)"/><rect x="12" y="19" width="4" height="4" fill="rgb(36,101,232)"/><rect x="12" y="23" width="4" height="3" fill="rgb(38,98,234)"/><rect x="16" y="19" width="3" height="4" fill="rgb(35,103,226)"/><rect x="19" y="19" width="4" height="4" fill="rgb(34,106,221)"/><rect x="26" y="19" width="4" height="4" fill="rgb(26,121,191)"/><rect x="26" y="23" width="4" height="3" fill="rgb(25,124,186)"/><rect x="33" y="19" width="4" height="4" fill="rgb(14,146,139)"/><rect x="33" y="23" width="4" height="3" fill="rgb(15,144,145)"/><rect x="37" y="19" width="3" height="4" fill="rgb(17,148,134)"/><rect x="40" y="19" width="4" height="4" fill="rgb(29,149,127)"/><rect x="44" y="19" width="3" height="4" fill="rgb(41,149,121)"/><rect x="47" y="19" width="4" height="4" fill="rgb(53,150,114)"/><rect x="47" y="23" width="4" height="3" fill="rgb(65,150,108)"/><rect x="51" y="19" width="3" height="4" fill="rgb(65,150,108)"/><rect x="54" y="19" width="4" height="4" fill="rgb(77,151,102)"/><rect x="54" y="23" width="4" height="3" fill="rgb(89,151,95)"/><rect x="5" y="26" width="4" height="4" fill="rgb(44,87,220)"/><rect x="5" y="30" width="4" height="3" fill="rgb(46,83,216)"/><rect x="9" y="26" width="3" height="4" fill="rgb(42,91,225)"/><rect x="12" y="26" width="4" height="4" fill="rgb(40,94,229)"/><rect x="16" y="26" width="3" height="4" fill="rgb(38,98,234)"/><rect x="19" y="26" width="4" height="4" fill="rgb(36,101,232)"/><rect x="26" y="26" width="4" height="4" fill="rgb(24,126,180)"/><rect x="26" y="30" width="4" height="3" fill="rgb(23,129,175)"/><rect x="33" y="26" width="4" height="4" fill="rgb(16,141,150)"/><rect x="33" y="30" width="4" height="3" fill="rgb(18,139,155)"/><rect x="40" y="26" width="4" height="4" fill="rgb(101,152,89)"/><rect x="44" y="26" width="3" height="4" fill="rgb(89,151,95)"/><rect x="47" y="26" width="4" height="4" fill="rgb(77,151,102)"/><rect x="47" y="30" width="4" height="3" fill="rgb(89,151,95)"/><rect x="54" y="26" width="4" height="4" fill="rgb(101,152,89)"/><rect x="54" y="30" width="4" height="3" fill="rgb(113,152,82)"/><rect x="5" y="33" width="4" height="4" fill="rgb(48,80,211)"/><rect x="5" y="37" width="4" height="3" fill="rgb(46,83,216)"/><rect x="9" y="33" width="3" height="4" fill="rgb(50,76,207)"/><rect x="12" y="33" width="4" height="4" fill="rgb(52,72,202)"/><rect x="12" y="37" width="4" height="3" fill="rgb(54,69,198)"/><rect x="16" y="33" width="3" height="4" fill="rgb(50,76,207)"/><rect x="19" y="33" width="4" height="4" fill="rgb(48,80,211)"/><rect x="26" y="33" width="4" height="4" fill="rgb(21,131,170)"/><rect x="30" y="33" width="3" height="4" fill="rgb(20,134,165)"/><rect x="33" y="33" width="4" height="4" fill="rgb(19,136,160)"/><rect x="40" y="33" width="4" height="4" fill="rgb(125,153,76)"/><rect x="40" y="37" width="4" height="3" fill="rgb(137,153,69)"/><rect x="44" y="33" width="3" height="4" fill="rgb(113,152,82)"/><rect x="47" y="33" width="4" height="4" fill="rgb(101,152,89)"/><rect x="54" y="33" width="4" height="4" fill="rgb(125,153,76)"/><rect x="54" y="37" width="4" height="3" fill="rgb(137,153,69)"/><rect x="5" y="40" width="4" height="4" fill="rgb(44,87,220)"/><rect x="12" y="40" width="4" height="4" fill="rgb(56,65,193)"/><rect x="12" y="44" width="4" height="3" fill="rgb(54,69,198)"/><rect x="16" y="40" width="3" height="4" fill="rgb(58,62,189)"/><rect x="19" y="40" width="4" height="4" fill="rgb(60,58,185)"/><rect x="19" y="44" width="4" height="3" fill="rgb(62,54,180)"/><rect x="26" y="40" width="4" height="4" fill="rgb(197,156,37)"/><rect x="30" y="40" width="3" height="4" fill="rgb(185,155,43)"/><rect x="33" y="40" width="4" height="4" fill="rgb(173,155,50)"/><rect x="37" y="40" width="3" height="4" fill="rgb(161,154,56)"/><rect x="40" y="40" width="4" height="4" fill="rgb(149,154,63)"/><rect x="47" y="40" width="4" height="4" fill="rgb(221,157,24)"/><rect x="47" y="44" width="4" height="3" fill="rgb(209,156,30)"/><rect x="54" y="40" width="4" height="4" fill="rgb(149,154,63)"/><rect x="54" y="44" width="4" height="3" fill="rgb(161,154,56)"/><rect x="5" y="47" width="4" height="4" fill="rgb(48,80,211)"/><rect x="9" y="47" width="3" height="4" fill="rgb(50,76,207)"/><rect x="12" y="47" width="4" height="4" fill="rgb(52,72,202)"/><rect x="19" y="47" width="4" height="4" fill="rgb(64,51,176)"/><rect x="19" y="51" width="4" height="3" fill="rgb(66,47,171)"/><rect x="26" y="47" width="4" height="4" fill="rgb(60,58,185)"/><rect x="26" y="51" width="4" height="3" fill="rgb(62,54,180)"/><rect x="33" y="47" width="4" height="4" fill="rgb(56,65,193)"/><rect x="33" y="51" width="4" height="3" fill="rgb(58,62,189)"/><rect x="37" y="47" width="3" height="4" fill="rgb(54,69,198)"/><rect x="40" y="47" width="4" height="4" fill="rgb(52,72,202)"/><rect x="47" y="47" width="4" height="4" fill="rgb(197,156,37)"/><rect x="47" y="51" width="4" height="3" fill="rgb(209,156,30)"/><rect x="51" y="47" width="3" height="4" fill="rgb(185,155,43)"/><rect x="54" y="47" width="4" height="4" fill="rgb(173,155,50)"/><rect x="5" y="54" width="4" height="4" fill="rgb(76,29,149)"/><rect x="9" y="54" width="3" height="4" fill="rgb(74,33,153)"/><rect x="12" y="54" width="4" height="4" fill="rgb(72,36,158)"/><rect x="16" y="54" width="3" height="4" fill="rgb(70,40,162)"/><rect x="19" y="54" width="4" height="4" fill="rgb(68,43,167)"/><rect x="23" y="54" width="3" height="4" fill="rgb(66,47,171)"/><rect x="26" y="54" width="4" height="4" fill="rgb(64,51,176)"/><rect x="30" y="54" width="3" height="4" fill="rgb(62,54,180)"/><rect x="33" y="54" width="4" height="4" fill="rgb(60,58,185)"/><rect x="37" y="54" width="3" height="4" fill="rgb(58,62,189)"/><rect x="40" y="54" width="4" height="4" fill="rgb(56,65,193)"/><rect x="47" y="54" width="4" height="4" fill="rgb(221,157,24)"/><rect x="51" y="54" width="3" height="4" fill="rgb(233,157,17)"/><rect x="54" y="54" width="4" height="4" fill="rgb(245,158,11)"/>
</svg>